<?xml version="1.0" encoding="utf-8"?>
<!-- Generator: Adobe Illustrator 19.0.0, SVG Export Plug-In . SVG Version: 6.00 Build 0)  -->
<svg version="1.1" id="Capa_1" xmlns="http://www.w3.org/2000/svg" xmlns:xlink="http://www.w3.org/1999/xlink" x="0px" y="0px"
	 viewBox="-223 25 512 512" style="enable-background:new -223 25 512 512;" xml:space="preserve">
<style type="text/css">
	.st0{fill:#FFFFFF;stroke:#FFFFFF;stroke-width:8.5039;stroke-miterlimit:10;}
	.st1{fill:#FFFFFF;}
</style>
<g>
	<g>
		<path class="st0" d="M240.9,404.6L106.5,189.5v-73.8c17.1-6.1,29.4-22.4,29.4-41.6C136,49.8,116.2,30,91.8,30H-25.8
			c-24.3,0-44.1,19.8-44.1,44.1c0,19.2,12.3,35.5,29.4,41.6v73.8c-3.5,5.5-130.4,208.6-134.4,215.1C-209.6,460-169.4,532-104.3,532
			h274.6C235.5,532,275.6,460,240.9,404.6z M-13.4,201.5c1.5-2.3,2.2-5,2.2-7.8v-90.2c0-8.1-6.6-14.7-14.7-14.7
			c-8.1,0-14.7-6.6-14.7-14.7s6.6-14.7,14.7-14.7H91.8c8.1,0,14.7,6.6,14.7,14.7s-6.6,14.7-14.7,14.7c-8.1,0-14.7,6.6-14.7,14.7
			v90.2c0,2.8,0.8,5.5,2.2,7.8l37,59.2C85.2,253,51.6,256.2,22,271c-25.6,12.8-55.5,14.7-82.3,5.6L-13.4,201.5z M170.3,502.6h-274.6
			c-42.1,0-68.1-46.6-45.7-82.4l73.8-118.1c36,14.3,76.9,12.5,111.4-4.8c32.9-16.4,73.5-15.8,108.9,7.7L216,420.2
			C238.4,456,212.4,502.6,170.3,502.6z"/>
	</g>
</g>
<g>
	<path class="st1" d="M116,342.7v124h-14.3c-3.3,0-5.4-1.6-6.2-4.8l-1.7-11.8c-4.6,5.4-9.6,9.9-15.2,13.4
		c-5.6,3.5-12.1,5.2-19.6,5.2c-8.2,0-14.9-2.3-20-6.8c-5.1-4.5-8.9-10.6-11.2-18.4c-1.8,4.4-4.1,8.2-7,11.3c-2.8,3.2-6,5.8-9.5,7.8
		c-3.5,2-7.2,3.5-11.2,4.5c-3.9,1-7.9,1.5-12,1.5c-6.6,0-12.5-1-17.6-3.1c-5.2-2.1-9.5-5.1-13.1-9.1c-3.6-4-6.3-8.9-8.2-14.8
		c-1.9-5.9-2.8-12.5-2.8-20v-78.9h23.9v78.9c0,9.3,2,16.3,6,21c4,4.7,9.9,7.1,17.6,7.1c3.4,0,6.7-0.6,9.8-1.8
		c3.1-1.2,5.8-2.9,8.1-5.3c2.3-2.4,4.1-5.3,5.5-8.8c1.3-3.5,2-7.6,2-12.2v-78.9h23.9v78.9c0,9.6,1.9,16.7,5.7,21.2
		c3.8,4.6,9.4,6.8,16.8,6.8c5.1,0,9.9-1.3,14.3-4c4.4-2.7,8.4-6.3,12.1-11v-92H116z"/>
</g>
</svg>
